MoBL_ARMS_module2_4_elbow_flexion_states	
version=1	
nRows=462	
nColumns=2	
inDegrees=yes	
	
# SIMM Motion File Header:	
name MoBL_ARMS_module2_4_elbow_flexion_states	
datacolumns 2	
datarows 462	
otherdata 1	
range 3.753223542 4.867650912	
endheader	
time	elbow_flexion
3.753223542	17.48633664
3.755640955	17.48937042
3.758058368	17.49242067
3.760475781	17.49548665
3.762893194	17.49856767
3.765310606	17.501663
3.767728019	17.50477193
3.770145432	17.50789375
3.772562845	17.51102773
3.774980258	17.51417318
3.777397671	17.51732938
3.779815084	17.52049562
3.782232497	17.52367121
3.78464991	17.52685543
3.787067323	17.53004758
3.789484736	17.53324697
3.791902149	17.5364529
3.794319562	17.53966468
3.796736975	17.54288161
3.799154388	17.54610301
3.801571801	17.54932818
3.803989214	17.55255646
3.806406627	17.55578716
3.80882404	17.55901959
3.811241453	17.5622531
3.813658865	17.56548701
3.816076278	17.56872066
3.818493691	17.57195338
3.820911104	17.57518453
3.823328517	17.57841343
3.82574593	17.58163945
3.828163343	17.58486194
3.830580756	17.58808026
3.832998169	17.59129377
3.835415582	17.59450184
3.837832995	17.59770385
3.840250408	17.60089917
3.842667821	17.60408718
3.845085234	17.60726727
3.847502647	17.61043884
3.84992006	17.61360128
3.852337473	17.61675399
3.854754886	17.61989638
3.857172299	17.62302787
3.859589712	17.62614788
3.862007124	17.62925583
3.864424537	17.63235115
3.86684195	17.63543327
3.869259363	17.63850165
3.871676776	17.64155572
3.874094189	17.64459494
3.876511602	17.64761878
3.878929015	17.6506267
3.881346428	17.65361816
3.883763841	17.65659266
3.886181254	17.65954968
3.888598667	17.6624887
3.89101608	17.66540923
3.893433493	17.66831077
3.895850906	17.67119284
3.898268319	17.67405495
3.900685732	17.67689663
3.903103145	17.67971741
3.905520558	17.68251683
3.907937971	17.68529443
3.910355383	17.68804978
3.912772796	17.69078242
3.915190209	17.69349194
3.917607622	17.69617789
3.920025035	17.69883987
3.922442448	17.70147747
3.924859861	17.70409027
3.927277274	17.70667789
3.929694687	17.70923994
3.9321121	17.71177603
3.934529513	17.71428579
3.936946926	17.71676886
3.939364339	17.71922487
3.941781752	17.72165349
3.944199165	17.72405435
3.946616578	17.72642713
3.949033991	17.7287715
3.951451404	17.73108714
3.953868817	17.73337374
3.95628623	17.73563098
3.958703643	17.73785859
3.961121055	17.74005626
3.963538468	17.74222371
3.965955881	17.74436068
3.968373294	17.74646689
3.970790707	17.74854209
3.97320812	17.75058602
3.975625533	17.75259845
3.978042946	17.75457915
3.980460359	17.75652788
3.982877772	17.75844442
3.985295185	17.76032858
3.987712598	17.76218013
3.990130011	17.76399889
3.992547424	17.76578468
3.994964837	17.76753731
3.99738225	17.76925661
3.999799663	17.77094242
4.002217076	17.77259458
4.004634489	17.77421295
4.007051902	17.77579738
4.009469314	17.77734775
4.011886727	17.77886392
4.01430414	17.78034579
4.016721553	17.78179324
4.019138966	17.78320617
4.021556379	17.7845845
4.023973792	17.78592812
4.026391205	17.78723698
4.028808618	17.78851099
4.031226031	17.78975009
4.033643444	17.79095423
4.036060857	17.79212336
4.03847827	17.79325745
4.040895683	17.79435644
4.043313096	17.79542034
4.045730509	17.7964491
4.048147922	17.79744274
4.050565335	17.79840123
4.052982748	17.79932459
4.055400161	17.80021282
4.057817573	17.80106595
4.060234986	17.801884
4.062652399	17.80266701
4.065069812	17.80341501
4.067487225	17.80412805
4.069904638	17.80480619
4.072322051	17.80544949
4.074739464	17.806058
4.077156877	17.80663182
4.07957429	17.80717101
4.081991703	17.80767568
4.084409116	17.8081459
4.086826529	17.80858179
4.089243942	17.80898345
4.091661355	17.80935099
4.094078768	17.80968454
4.096496181	17.80998422
4.098913594	17.81025017
4.101331007	17.81048252
4.10374842	17.81068142
4.106165833	17.81084703
4.108583245	17.8109795
4.111000658	17.81107898
4.113418071	17.81114567
4.115835484	17.81117972
4.118252897	17.81118131
4.12067031	17.81115065
4.123087723	17.81108791
4.125505136	17.8109933
4.127922549	17.81086702
4.130339962	17.81070928
4.132757375	17.81052028
4.135174788	17.81030026
4.137592201	17.81004944
4.140009614	17.80976804
4.142427027	17.80945629
4.14484444	17.80911445
4.147261853	17.80874275
4.149679266	17.80834144
4.152096679	17.80791078
4.154514092	17.80745102
4.156931504	17.80696242
4.159348917	17.80644526
4.16176633	17.80589981
4.164183743	17.80532633
4.166601156	17.80472512
4.169018569	17.80409645
4.171435982	17.80344062
4.173853395	17.80275791
4.176270808	17.80204862
4.178688221	17.80131305
4.181105634	17.80055151
4.183523047	17.7997643
4.18594046	17.79895174
4.188357873	17.79811413
4.190775286	17.79725179
4.193192699	17.79636505
4.195610112	17.79545423
4.198027525	17.79451965
4.200444938	17.79356165
4.202862351	17.79258056
4.205279763	17.79157672
4.207697176	17.79055045
4.210114589	17.78950211
4.212532002	17.78843204
4.214949415	17.78734059
4.217366828	17.7862281
4.219784241	17.78509492
4.222201654	17.78394141
4.224619067	17.78276792
4.22703648	17.78157481
4.229453893	17.78036245
4.231871306	17.77913118
4.234288719	17.77788138
4.236706132	17.77661341
4.239123545	17.77532763
4.241540958	17.77402442
4.243958371	17.77270415
4.246375784	17.77136717
4.248793197	17.77001388
4.25121061	17.76864463
4.253628023	17.76725981
4.256045435	17.76585978
4.258462848	17.76444494
4.260880261	17.76301565
4.263297674	17.76157229
4.265715087	17.76011524
4.2681325	17.75864488
4.270549913	17.7571616
4.272967326	17.75566576
4.275384739	17.75415776
4.277802152	17.75263797
4.280219565	17.75110677
4.282636978	17.74956455
4.285054391	17.74801169
4.287471804	17.74644856
4.289889217	17.74487556
4.29230663	17.74329306
4.294724043	17.74170144
4.297141456	17.74010109
4.299558869	17.73849238
4.301976282	17.73687569
4.304393694	17.73525141
4.306811107	17.7336199
4.30922852	17.73198156
4.311645933	17.73033675
4.314063346	17.72868586
4.316480759	17.72702925
4.318898172	17.7253673
4.321315585	17.72370039
4.323732998	17.72202889
4.326150411	17.72035316
4.328567824	17.71867358
4.330985237	17.71699051
4.33340265	17.71530433
4.335820063	17.7136154
4.338237476	17.71192407
4.340654889	17.71023072
4.343072302	17.7085357
4.345489715	17.70683937
4.347907128	17.7051421
4.350324541	17.70344422
4.352741953	17.7017461
4.355159366	17.70004809
4.357576779	17.69835053
4.359994192	17.69665378
4.362411605	17.69495818
4.364829018	17.69326406
4.367246431	17.69157177
4.369663844	17.68988166
4.372081257	17.68819404
4.37449867	17.68650926
4.376916083	17.68482764
4.379333496	17.68314952
4.381750909	17.68147522
4.384168322	17.67980505
4.386585735	17.67813935
4.389003148	17.67647842
4.391420561	17.67482259
4.393837974	17.67317215
4.396255387	17.67152743
4.3986728	17.66988872
4.401090213	17.66825633
4.403507625	17.66663056
4.405925038	17.6650117
4.408342451	17.66340005
4.410759864	17.66179589
4.413177277	17.66019951
4.41559469	17.6586112
4.418012103	17.65703124
4.420429516	17.6554599
4.422846929	17.65389745
4.425264342	17.65234417
4.427681755	17.65080032
4.430099168	17.64926616
4.432516581	17.64774196
4.434933994	17.64622796
4.437351407	17.64472443
4.43976882	17.64323161
4.442186233	17.64174974
4.444603646	17.64027907
4.447021059	17.63881984
4.449438472	17.63737227
4.451855884	17.6359366
4.454273297	17.63451305
4.45669071	17.63310185
4.459108123	17.63170321
4.461525536	17.63031736
4.463942949	17.62894449
4.466360362	17.62758483
4.468777775	17.62623856
4.471195188	17.6249059
4.473612601	17.62358703
4.476030014	17.62228214
4.478447427	17.62099144
4.48086484	17.61971508
4.483282253	17.61845327
4.485699666	17.61720617
4.488117079	17.61597395
4.490534492	17.61475678
4.492951905	17.61355482
4.495369318	17.61236824
4.497786731	17.61119718
4.500204143	17.61004181
4.502621556	17.60890226
4.505038969	17.60777867
4.507456382	17.60667119
4.509873795	17.60557996
4.512291208	17.60450509
4.514708621	17.60344673
4.517126034	17.60240498
4.519543447	17.60137997
4.52196086	17.60037181
4.524378273	17.59938061
4.526795686	17.59840649
4.529213099	17.59744953
4.531630512	17.59650983
4.534047925	17.5955875
4.536465338	17.59468261
4.538882751	17.59379526
4.541300164	17.59292553
4.543717577	17.59207348
4.54613499	17.5912392
4.548552402	17.59042276
4.550969815	17.58962422
4.553387228	17.58884363
4.555804641	17.58808106
4.558222054	17.58733656
4.560639467	17.58661018
4.56305688	17.58590196
4.565474293	17.58521194
4.567891706	17.58454016
4.570309119	17.58388666
4.572726532	17.58325146
4.575143945	17.58263458
4.577561358	17.58203605
4.579978771	17.58145589
4.582396184	17.58089411
4.584813597	17.58035071
4.58723101	17.57982571
4.589648423	17.5793191
4.592065836	17.57883088
4.594483249	17.57836106
4.596900662	17.57790961
4.599318074	17.57747652
4.601735487	17.57706179
4.6041529	17.57666538
4.606570313	17.57628727
4.608987726	17.57592744
4.611405139	17.57558586
4.613822552	17.57526249
4.616239965	17.57495728
4.618657378	17.57467021
4.621074791	17.57440122
4.623492204	17.57415027
4.625909617	17.5739173
4.62832703	17.57370225
4.630744443	17.57350508
4.633161856	17.57332571
4.635579269	17.57316408
4.637996682	17.57302013
4.640414095	17.57289377
4.642831508	17.57278494
4.645248921	17.57269355
4.647666333	17.57261953
4.650083746	17.57256279
4.652501159	17.57252324
4.654918572	17.57250079
4.657335985	17.57249536
4.659753398	17.57250683
4.662170811	17.57253511
4.664588224	17.57258011
4.667005637	17.5726417
4.66942305	17.5727198
4.671840463	17.57281428
4.674257876	17.57292503
4.676675289	17.57305194
4.679092702	17.57319488
4.681510115	17.57335374
4.683927528	17.57352839
4.686344941	17.57371871
4.688762354	17.57392456
4.691179767	17.57414582
4.69359718	17.57438235
4.696014592	17.57463401
4.698432005	17.57490067
4.700849418	17.57518219
4.703266831	17.57547841
4.705684244	17.57578921
4.708101657	17.57611442
4.71051907	17.57645391
4.712936483	17.57680751
4.715353896	17.57717508
4.717771309	17.57755645
4.720188722	17.57795148
4.722606135	17.57836
4.725023548	17.57878186
4.727440961	17.57921688
4.729858374	17.57966491
4.732275787	17.58012577
4.7346932	17.5805993
4.737110613	17.58108533
4.739528026	17.58158369
4.741945439	17.5820942
4.744362852	17.58261669
4.746780264	17.58315099
4.749197677	17.58369692
4.75161509	17.58425429
4.754032503	17.58482293
4.756449916	17.58540266
4.758867329	17.58599329
4.761284742	17.58659464
4.763702155	17.58720653
4.766119568	17.58782877
4.768536981	17.58846117
4.770954394	17.58910355
4.773371807	17.58975571
4.77578922	17.59041747
4.778206633	17.59108863
4.780624046	17.591769
4.783041459	17.5924584
4.785458872	17.59315663
4.787876285	17.59386348
4.790293698	17.59457878
4.792711111	17.59530232
4.795128523	17.59603391
4.797545936	17.59677335
4.799963349	17.59752045
4.802380762	17.598275
4.804798175	17.59903682
4.807215588	17.5998057
4.809633001	17.60058144
4.812050414	17.60136384
4.814467827	17.60215272
4.81688524	17.60294786
4.819302653	17.60374907
4.821720066	17.60455615
4.824137479	17.6053689
4.826554892	17.60618712
4.828972305	17.60701061
4.831389718	17.60783917
4.833807131	17.60867261
4.836224544	17.60951072
4.838641957	17.61035331
4.84105937	17.61120017
4.843476782	17.61205111
4.845894195	17.61290593
4.848311608	17.61376443
4.850729021	17.61462642
4.853146434	17.6154917
4.855563847	17.61636006
4.85798126	17.61723132
4.860398673	17.61810529
4.862816086	17.61898175
4.865233499	17.61986053
4.867650912	17.62074143
